# AST/ASF file generated using VICON BodyLanguage
# -----------------------------------------------
:version 1.10
:name VICON
:units
  mass 1.0
  length 0.45
  angle deg
:documentation
   .ast/.asf automatically generated from VICON data using
   VICON BodyBuilder and BodyLanguage model FoxedUp or BRILLIANT.MOD
:root
   order TX TY TZ RX RY RZ
   axis XYZ
   position 0 0 0  
   orientation 0 0 0 
:bonedata
  begin
     id 1 
     name lhipjoint
     direction 0.623529 -0.717805 0.309788 
     length 2.23224 
     axis 0 0 0  XYZ
  end
  begin
     id 2 
     name lfemur
     direction 0.34202 -0.939693 0  
     length 7.11402  
     axis 0 0 20  XYZ
    dof rx ry rz
    limits (-160.0 20.0)
           (-70.0 70.0)
           (-60.0 70.0)
  end
  begin
     id 3 
     name ltibia
     direction 0.34202 -0.939693 0   
     length 6.78496   
     axis 0 0 20   XYZ
    dof rx
    limits (-10.0 170.0)
  end
  begin
     id 4 
     name lfoot
     direction 0.125078 -0.343648 0.930732   
     length 1.84054   
     axis -90 7.62852e-016 20   XYZ
    dof rx rz
    limits (-45.0 90.0)
           (-70.0 20.0)
  end
  begin
     id 5 
     name ltoes
     direction 1.53565e-011 -4.21893e-011 1   
     length 0.916474   
     axis -90 7.62852e-016 20   XYZ
    dof rx
    limits (-90.0 20.0)
  end
  begin
     id 6 
     name rhipjoint
     direction -0.564688 -0.757748 0.327026   
     length 2.11457  
     axis 0 0 0  XYZ 
  end
  begin
     id 7 
     name rfemur
     direction -0.34202 -0.939693 0   
     length 7.14609   
     axis 0 0 -20   XYZ
    dof rx ry rz
    limits (-160.0 20.0)
           (-70.0 70.0)
           (-70.0 60.0)
  end
  begin
     id 8 
     name rtibia
     direction -0.34202 -0.939693 0   
     length 6.78101   
     axis 0 0 -20   XYZ
    dof rx
    limits (-10.0 170.0)
 end
 begin
     id 9 
     name rfoot
     direction -0.0992671 -0.272734 0.956955   
     length 1.96168  
     axis -90 -7.62852e-016 -20   XYZ
    dof rx rz
    limits (-45.0 90.0)
           (-20.0 70.0)
  end
  begin
     id 10 
     name rtoes
     direction -1.5356e-011 -4.21891e-011 1   
     length 0.982933   
     axis -90 -7.62852e-016 -20   XYZ
    dof rx
    limits (-90.0 20.0)
  end
  begin
     id 11 
     name lowerback
     direction -0.00596953 0.998668 0.0512524   
     length 1.87557   
     axis 0 0 0   XYZ
    dof rx ry rz
    limits (-20.0 45.0)
           (-30.0 30.0)
           (-30.0 30.0)
  end
  begin
     id 12 
     name upperback
     direction 0.00584879 0.999652 0.0257308   
     length 1.87883   
     axis 0 0 0   XYZ
    dof rx ry rz
    limits (-20.0 45.0)
           (-30.0 30.0)
           (-30.0 30.0)
  end
  begin
     id 13 
     name thorax
     direction 0.010104 0.999947 0.00178881   
     length 1.87779   
     axis 0 0 0   XYZ
    dof rx ry rz
    limits (-20.0 45.0)
           (-30.0 30.0)
           (-30.0 30.0)
  end
  begin
     id 14 
     name lowerneck
     direction 0.0120771 0.995934 -0.0892773   
     length 1.40897   
     axis 0 0 0   XYZ
    dof rx ry rz
    limits (-20.0 45.0)
           (-30.0 30.0)
           (-30.0 30.0)
  end
  begin
     id 15 
     name upperneck
     direction -0.030568 0.999465 -0.0116366   
     length 1.38661   
     axis 0 0 0   XYZ
    dof rx ry rz
    limits (-20.0 45.0)
           (-30.0 30.0)
           (-30.0 30.0)
  end
  begin
     id 16
     name head
     direction -0.0170715 0.999854 -0.00104426  
     length 1.47052  
     axis 0 0 0   XYZ
    dof rx ry rz
    limits (-20.0 45.0)
           (-30.0 30.0)
           (-30.0 30.0)
  end
  begin
     id 17 
     name lclavicle
     direction 0.977763 0.206143 0.038532  
     length 3.02424  
     axis 0 0 0   XYZ
    dof ry rz
    limits (-20.0 10.0)
           (0.0 20.0)
  end
  begin
     id 18 
     name lhumerus
     direction 1 -4.48965e-011 -2.62654e-027   
     length 4.68382   
     axis 180 -30 -90   XYZ
    dof rx ry rz
    limits (-60.0 90.0)
           (-90.0 90.0)
           (-90.0 90.0)
  end
  begin
     id 19
     name lradius
     direction 1 -4.48973e-011 -1.54954e-027   
     length 2.98124   
     axis 180 -30 -90   XYZ
    dof rx
    limits (-10.0 170.0)
  end
  begin
     id 20
     name lwrist
     direction 1 -4.48959e-011 7.20928e-028   
     length 1.49062   
     axis -5.52449e-016 90 90   XYZ
    dof ry
    limits (-180.0 0.0)
 end
  begin
     id 21 
     name lhand
     direction 1 -4.48971e-011 1.44186e-027   
     length 0.707595   
     axis -9.20027e-016 90 90   XYZ
    dof rx rz
    limits (-90.0 90.0)
           (-45.0 45.0)
  end
  begin
     id 22 
     name lfingers
     direction 1 -4.48985e-011 2.88371e-027   
     length 0.570481   
     axis -1.84005e-015 90 90   XYZ
    dof rx
    limits (0.0 90.0)
  end
  begin
     id 23
     name lthumb
     direction 0.707107 -6.34929e-011 0.707107   
     length 0.819101   
     axis -90 45 2.85299e-015   XYZ
    dof rx rz
    limits (-45.0 45.0)
           (-45.0 45.0)
  end
  begin
     id 24 
     name rclavicle
     direction -0.958661 0.284411 -0.00895327   
     length 3.11921  
     axis 0 0 0   XYZ 
    dof ry rz
    limits (-10.0 20.0)
           (-20.0 0.0)
  end
  begin
     id 25 
     name rhumerus
     direction -1 -4.48963e-011 -4.22193e-027  
     length 4.75876   
     axis 180 30 90   XYZ
    dof rx ry rz
    limits (-90.0 60.0)
           (-90.0 90.0)
           (-90.0 90.0)
  end
  begin
     id 26 
     name rradius
     direction -1 -4.48968e-011 -1.07616e-027   
     length 2.93293   
     axis 180 30 90   XYZ
    dof rx
    limits (-10.0 170.0)
  end
  begin
     id 27 
     name rwrist
     direction -1 -4.48965e-011 7.20928e-028   
     length 1.46647   
     axis -5.52449e-016 -90 -90   XYZ
    dof ry
    limits (-180.0 0.0)
  end
  begin
     id 28
     name rhand
     direction -1 -4.48971e-011 1.44186e-027   
     length 0.831748   
     axis -9.20027e-016 -90 -90   XYZ
    dof rx rz
    limits (-90.0 90.0)
           (-45.0 45.0)
  end
  begin
     id 29
     name rfingers
     direction -1 -4.48961e-011 2.88371e-027   
     length 0.670577   
     axis -1.84005e-015 -90 -90   XYZ
    dof rx
    limits (0.0 90.0)
  end
  begin
     id 30
     name rthumb
     direction -0.707107 -6.34929e-011 0.707107   
     length 0.962818   
     axis -90 -45 -2.85299e-015   XYZ
    dof rx rz
    limits (-45.0 45.0)
           (-45.0 45.0)
  end
:hierarchy
  begin
    root lhipjoint rhipjoint lowerback
    lhipjoint lfemur
    lfemur ltibia
    ltibia lfoot
    lfoot ltoes
    rhipjoint rfemur
    rfemur rtibia
    rtibia rfoot
    rfoot rtoes
    lowerback upperback
    upperback thorax
    thorax lowerneck lclavicle rclavicle
    lowerneck upperneck
    upperneck head
    lclavicle lhumerus
    lhumerus lradius
    lradius lwrist
    lwrist lhand lthumb
    lhand lfingers
    rclavicle rhumerus
    rhumerus rradius
    rradius rwrist
    rwrist rhand rthumb
    rhand rfingers
  end

#!OML:ASF E:\id_vita\Project 1\Capture day 1\Session 1\Female.ASF
:FULLY-SPECIFIED
:DEGREES
915
root 5.90922 27.548 1.46424 688.878 99.4295 664.028
lowerback -12.6136 -2.50937 -8.55419
upperback -3.29282 -1.97583 -1.44963
thorax 3.83536 -0.94818 2.98191
lowerneck 1.98264 0.202051 -6.30189
upperneck -13.9692 1.30605 8.97938
head -4.56519 0.595815 3.76355
rclavicle 1.87914e-016 -4.06577e-015
rhumerus 12.1528 11.851 -33.8706
rradius 110.013
rwrist -7.4142
rhand -8.92327 14.8334
rfingers 7.12502
rthumb 17.0203 -14.441
lclavicle 1.87914e-016 -4.06577e-015
lhumerus 77.9723 -2.63187 58.356
lradius 17.1015
lwrist -40.2125
lhand -7.64897 19.8459
lfingers 7.12502
lthumb 18.2466 49.0101
rfemur -32.0732 23.4222 8.13605
rtibia 18.9245
rfoot 1.95624 -35.5908
rtoes 3.74301
lfemur -37.0371 -14.494 -16.9506
ltibia 30.6892
lfoot -10.1491 -0.984188
ltoes -11.9363
916
root 5.90607 27.543 1.46374 688.099 99.4101 663.186
lowerback -12.582 -2.54385 -8.65025
upperback -3.30857 -2.01266 -1.4503
thorax 3.80843 -0.96519 3.02982
lowerneck 1.921 0.296744 -6.26319
upperneck -13.9811 1.45024 9.01597
head -4.56971 0.665512 3.7621
rclavicle 1.71817e-014 -2.97556e-015
rhumerus 12.2327 11.9871 -33.8292
rradius 110.255
rwrist -7.27822
rhand -8.53133 14.5226
rfingers 7.12502
rthumb 17.3975 -14.7188
lclavicle 1.71817e-014 -2.97556e-015
lhumerus 78.0095 -2.53943 58.5423
lradius 16.9817
lwrist -40.5455
lhand -8.68251 21.4573
lfingers 7.12502
lthumb 17.252 50.7116
rfemur -32.228 23.4514 7.99755
rtibia 19.0112
rfoot 2.19012 -35.5255
rtoes 3.37731
lfemur -37.1257 -14.5692 -16.991
ltibia 30.7118
lfoot -10.1999 -0.789431
ltoes -11.8578
917
root 5.90425 27.5372 1.46301 687.401 99.3564 662.437
lowerback -12.6761 -2.53538 -8.66914
upperback -3.26553 -1.9842 -1.48879
thorax 3.90157 -0.955653 3.00104
lowerneck 2.15843 0.368478 -6.11591
upperneck -14.3286 1.57477 8.98481
head -4.72505 0.71607 3.7256
rclavicle 6.83943e-015 -3.37064e-014
rhumerus 12.1068 12.0045 -33.8121
rradius 110.135
rwrist -7.53608
rhand -8.71243 15.7484
rfingers 7.12502
rthumb 17.2232 -13.5084
lclavicle 6.83943e-015 -3.37064e-014
lhumerus 78.249 -2.43701 59.4339
lradius 16.733
lwrist -40.4418
lhand -9.79177 21.6134
lfingers 7.12502
lthumb 16.1842 50.9578
rfemur -32.3653 23.5046 7.89091
rtibia 19.072
rfoot 2.3118 -35.4689
rtoes 3.22398
lfemur -37.2019 -14.5888 -17.0107
ltibia 30.7398
lfoot -10.227 -0.64527
ltoes -11.7031
918
root 5.9061 27.536 1.46292 687.33 99.2044 662.391
lowerback -12.7039 -2.4698 -8.53819
upperback -3.26283 -1.91285 -1.4813
thorax 3.90785 -0.920446 2.94712
lowerneck 2.49073 0.369123 -6.07843
upperneck -14.6373 1.59043 9.00549
head -4.87712 0.711942 3.72875
rclavicle 1.82478e-014 2.94574e-014
rhumerus 11.7055 12.1269 -33.7192
rradius 110.46
rwrist -7.36806
rhand -8.59853 14.935
rfingers 7.12502
rthumb 17.3329 -14.3122
lclavicle 1.82478e-014 2.94574e-014
lhumerus 78.3849 -2.45959 60.0595
lradius 16.6054
lwrist -40.3285
lhand -10.4293 21.4738
lfingers 7.12502
lthumb 15.5703 50.8671
rfemur -32.399 23.6207 7.99885
rtibia 19.1098
rfoot 2.34386 -35.4555
rtoes 3.15783
lfemur -37.1909 -14.6544 -16.8443
ltibia 30.7873
lfoot -10.1882 -0.477296
ltoes -11.7585
919
root 5.90805 27.5356 1.46267 687.591 99.054 662.713
lowerback -12.651 -2.38329 -8.4
upperback -3.27307 -1.82939 -1.4084
thorax 3.85691 -0.877954 2.96243
lowerneck 2.66954 0.365618 -6.16598
upperneck -14.7423 1.5777 9.01395
head -4.93938 0.704367 3.74831
rclavicle -6.21668e-015 -1.99841e-014
rhumerus 11.227 12.1897 -33.5809
rradius 110.666
rwrist -7.23145
rhand -8.6442 14.9336
rfingers 7.12502
rthumb 17.2889 -14.3174
lclavicle -6.21668e-015 -1.99841e-014
lhumerus 78.4399 -2.57215 60.0548
lradius 16.656
lwrist -39.6821
lhand -10.7213 21.425
lfingers 7.12502
lthumb 15.289 50.8399
rfemur -32.3579 23.7189 8.17389
rtibia 19.0756
rfoot 2.46322 -35.4354
rtoes 2.80214
lfemur -37.1594 -14.7004 -16.6565
ltibia 30.8688
lfoot -10.2169 -0.350265
ltoes -11.6579
920
root 5.90961 27.5351 1.46483 687.645 98.9484 662.797
lowerback -12.6583 -2.31693 -8.37505
upperback -3.25375 -1.75009 -1.3262
thorax 3.87401 -0.841441 3.04785
lowerneck 2.75219 0.320589 -6.21053
upperneck -14.8287 1.49835 8.90976
head -4.97379 0.67088 3.72804
rclavicle 6.54747e-015 1.46107e-014
rhumerus 10.9046 12.2144 -33.4259
rradius 110.559
rwrist -7.46665
rhand -9.0097 16.1816
rfingers 7.12502
rthumb 16.9371 -13.0999
lclavicle 6.54747e-015 1.46107e-014
lhumerus 78.4635 -2.6957 59.5135
lradius 16.8707
lwrist -38.6037
lhand -10.8942 21.1641
lfingers 7.12502
lthumb 15.1225 50.5916
rfemur -32.3167 23.7888 8.2749
rtibia 18.9962
rfoot 2.48859 -35.4541
rtoes 2.85657
lfemur -37.1577 -14.7066 -16.5473
ltibia 30.9723
lfoot -10.2854 -0.207925
ltoes -11.7001
921
root 5.9115 27.5344 1.46949 687.537 98.8941 662.732
lowerback -12.6783 -2.28021 -8.44
upperback -3.21814 -1.69393 -1.27227
thorax 3.91923 -0.81796 3.14934
lowerneck 2.73198 0.201478 -6.27814
upperneck -14.8252 1.32522 8.8868
head -4.95557 0.59081 3.74097
rclavicle -1.42069e-014 -9.79014e-015
rhumerus 10.7388 12.2091 -33.3201
rradius 110.531
rwrist -7.47885
rhand -9.13836 16.7922
rfingers 7.12502
rthumb 16.8132 -12.4999
lclavicle -1.42069e-014 -9.79014e-015
lhumerus 78.43 -2.80444 58.7732
lradius 17.1727
lwrist -37.5633
lhand -11.0265 20.9336
lfingers 7.12502
lthumb 14.995 50.3706
rfemur -32.2376 23.8418 8.36036
rtibia 18.9494
rfoot 2.52335 -35.4812
rtoes 2.98683
lfemur -37.1395 -14.7779 -16.4775
ltibia 31.0753
lfoot -10.3584 -7.37927e-005
ltoes -11.8239
